{
  "asset": {
    "version": "2.0",
    "extras": {
      "credit": "Base : \"Business Man\" (pack Ultimate Modular Men) par Quaternius (Poly Pizza, CC0) ; pose fig\u00e9e depuis l'animation Idle, UV repeinte en interne pour Presstee (chemise)."
    }
  },
  "scene": 0,
  "scenes": [
    {
      "nodes": [
        0
      ]
    }
  ],
  "nodes": [
    {
      "mesh": 0,
      "name": "chemise"
    }
  ],
  "materials": [
    {
      "name": "Material",
      "pbrMetallicRoughness": {
        "baseColorTexture": {
          "index": 0
        },
        "metallicRoughnessTexture": {
          "index": 1
        },
        "metallicFactor": 1.0,
        "roughnessFactor": 1.0
      },
      "doubleSided": true,
      "alphaMode": "OPAQUE"
    }
  ],
  "textures": [
    {
      "source": 0
    },
    {
      "source": 1
    }
  ],
  "images": [
    {
      "uri": "../textures/Material_baseColor.png"
    },
    {
      "uri": "../textures/Material_metallicRoughness.png"
    }
  ],
  "meshes": [
    {
      "primitives": [
        {
          "attributes": {
            "POSITION": 1,
            "NORMAL": 2,
            "TEXCOORD_0": 3
          },
          "indices": 0,
          "material": 0
        }
      ]
    }
  ],
  "accessors": [
    {
      "bufferView": 0,
      "byteOffset": 0,
      "componentType": 5125,
      "count": 2706,
      "type": "SCALAR"
    },
    {
      "bufferView": 1,
      "byteOffset": 0,
      "componentType": 5126,
      "count": 1791,
      "type": "VEC3",
      "min": [
        -0.26574527248448093,
        0.9828178428402089,
        -0.07118484143992754
      ],
      "max": [
        0.2833455550447049,
        1.5155099334482922,
        0.219
      ]
    },
    {
      "bufferView": 1,
      "byteOffset": 21492,
      "componentType": 5126,
      "count": 1791,
      "type": "VEC3"
    },
    {
      "bufferView": 2,
      "byteOffset": 0,
      "componentType": 5126,
      "count": 1791,
      "type": "VEC2"
    }
  ],
  "bufferViews": [
    {
      "buffer": 0,
      "byteOffset": 0,
      "byteLength": 10824,
      "target": 34963
    },
    {
      "buffer": 0,
      "byteOffset": 10824,
      "byteLength": 42984,
      "byteStride": 12,
      "target": 34962
    },
    {
      "buffer": 0,
      "byteOffset": 53808,
      "byteLength": 14328,
      "byteStride": 8,
      "target": 34962
    }
  ],
  "buffers": [
    {
      "uri": "scene.bin",
      "byteLength": 68136
    }
  ]
}