{
  "asset": {
    "version": "2.0",
    "extras": {
      "credit": "Base : \"Business Man\" (pack Ultimate Modular Men) par Quaternius (Poly Pizza, CC0) ; pose fig\u00e9e depuis l'animation Idle, UV repeinte en interne pour Presstee (polo)."
    }
  },
  "scene": 0,
  "scenes": [
    {
      "nodes": [
        0
      ]
    }
  ],
  "nodes": [
    {
      "mesh": 0,
      "name": "polo"
    }
  ],
  "materials": [
    {
      "name": "Material",
      "pbrMetallicRoughness": {
        "baseColorTexture": {
          "index": 0
        },
        "metallicRoughnessTexture": {
          "index": 1
        },
        "metallicFactor": 1.0,
        "roughnessFactor": 1.0
      },
      "doubleSided": true,
      "alphaMode": "OPAQUE"
    }
  ],
  "textures": [
    {
      "source": 0
    },
    {
      "source": 1
    }
  ],
  "images": [
    {
      "uri": "../textures/Material_baseColor.png"
    },
    {
      "uri": "../textures/Material_metallicRoughness.png"
    }
  ],
  "meshes": [
    {
      "primitives": [
        {
          "attributes": {
            "POSITION": 1,
            "NORMAL": 2,
            "TEXCOORD_0": 3
          },
          "indices": 0,
          "material": 0
        }
      ]
    }
  ],
  "accessors": [
    {
      "bufferView": 0,
      "byteOffset": 0,
      "componentType": 5125,
      "count": 2280,
      "type": "SCALAR"
    },
    {
      "bufferView": 1,
      "byteOffset": 0,
      "componentType": 5126,
      "count": 1511,
      "type": "VEC3",
      "min": [
        -0.25190774528785204,
        0.9844339644242525,
        -0.07105330386200852
      ],
      "max": [
        0.25813306492520405,
        1.523349735517768,
        0.217
      ]
    },
    {
      "bufferView": 1,
      "byteOffset": 18132,
      "componentType": 5126,
      "count": 1511,
      "type": "VEC3"
    },
    {
      "bufferView": 2,
      "byteOffset": 0,
      "componentType": 5126,
      "count": 1511,
      "type": "VEC2"
    }
  ],
  "bufferViews": [
    {
      "buffer": 0,
      "byteOffset": 0,
      "byteLength": 9120,
      "target": 34963
    },
    {
      "buffer": 0,
      "byteOffset": 9120,
      "byteLength": 36264,
      "byteStride": 12,
      "target": 34962
    },
    {
      "buffer": 0,
      "byteOffset": 45384,
      "byteLength": 12088,
      "byteStride": 8,
      "target": 34962
    }
  ],
  "buffers": [
    {
      "uri": "scene.bin",
      "byteLength": 57472
    }
  ]
}