{
  "asset": {
    "version": "2.0",
    "extras": {
      "credit": "Maillage casquette cr\u00e9\u00e9 en interne pour Presstee (d\u00f4me 6 pans + visi\u00e8re), texture partag\u00e9e avec le t-shirt (Chirag.Vijay, Sketchfab, CC-BY-4.0)."
    }
  },
  "scene": 0,
  "scenes": [
    {
      "nodes": [
        0
      ]
    }
  ],
  "nodes": [
    {
      "mesh": 0,
      "name": "casquette"
    }
  ],
  "materials": [
    {
      "name": "Material",
      "pbrMetallicRoughness": {
        "baseColorTexture": {
          "index": 0
        },
        "metallicRoughnessTexture": {
          "index": 1
        },
        "metallicFactor": 1.0,
        "roughnessFactor": 1.0
      },
      "doubleSided": true,
      "alphaMode": "OPAQUE"
    }
  ],
  "textures": [
    {
      "source": 0
    },
    {
      "source": 1
    }
  ],
  "images": [
    {
      "uri": "../textures/Material_baseColor.png"
    },
    {
      "uri": "../textures/Material_metallicRoughness.png"
    }
  ],
  "meshes": [
    {
      "primitives": [
        {
          "attributes": {
            "POSITION": 1,
            "NORMAL": 2,
            "TEXCOORD_0": 3
          },
          "indices": 0,
          "material": 0
        }
      ]
    }
  ],
  "accessors": [
    {
      "bufferView": 0,
      "byteOffset": 0,
      "componentType": 5125,
      "count": 288,
      "type": "SCALAR"
    },
    {
      "bufferView": 1,
      "byteOffset": 0,
      "componentType": 5126,
      "count": 59,
      "type": "VEC3",
      "min": [
        -9.902680687415703,
        -1.4082689903993455,
        -8.575973040867547
      ],
      "max": [
        9.902680687415703,
        10.0,
        15.575973040867547
      ]
    },
    {
      "bufferView": 1,
      "byteOffset": 708,
      "componentType": 5126,
      "count": 59,
      "type": "VEC3"
    },
    {
      "bufferView": 2,
      "byteOffset": 0,
      "componentType": 5126,
      "count": 59,
      "type": "VEC2"
    }
  ],
  "bufferViews": [
    {
      "buffer": 0,
      "byteOffset": 0,
      "byteLength": 1152,
      "target": 34963
    },
    {
      "buffer": 0,
      "byteOffset": 1152,
      "byteLength": 1416,
      "byteStride": 12,
      "target": 34962
    },
    {
      "buffer": 0,
      "byteOffset": 2568,
      "byteLength": 472,
      "byteStride": 8,
      "target": 34962
    }
  ],
  "buffers": [
    {
      "uri": "scene.bin",
      "byteLength": 3040
    }
  ]
}